<?xml version="1.0" encoding="utf-8"?>
<!-- Generator: Adobe Illustrator 24.1.2, SVG Export Plug-In . SVG Version: 6.00 Build 0)  -->
<svg version="1.1" id="Layer_1" xmlns="http://www.w3.org/2000/svg" xmlns:xlink="http://www.w3.org/1999/xlink" x="0px" y="0px"
	 viewBox="0 0 90 46.7" style="enable-background:new 0 0 90 46.7;" xml:space="preserve">
<style type="text/css">
	.st0{opacity:0.8;fill:#F7EDF4;enable-background:new    ;}
	.st1{opacity:0.8;fill:#FFFFFF;}
	.st2{opacity:0.8;}
	.st3{fill:#FFFFFF;}
	.st4{opacity:0.6;fill:#E5C2D8;enable-background:new    ;}
	.st5{fill:url(#Path_2939_2_);}
	.st6{fill:url(#Path_2940_2_);}
	.st7{fill:url(#Path_2941_2_);}
	.st8{fill:url(#Path_2942_2_);}
	.st9{fill:url(#Path_2943_2_);}
	.st10{fill:url(#Path_2944_2_);}
	.st11{fill:url(#Path_2945_2_);}
	.st12{fill:url(#Path_2946_2_);}
	.st13{fill:url(#Path_2947_2_);}
	.st14{fill:url(#Path_2948_2_);}
	.st15{fill:url(#Path_2949_2_);}
	.st16{fill:url(#Path_2950_2_);}
</style>
<path id="Path_2938" class="st0" d="M50.8,30h-7.7l5.6-5.6c2.9-2.9-1.2-7.4-4.5-4.1L33.8,30.7c-1.2,1.2-1.2,2.7-0.5,4
	c0.3,0.4,0.5,0.7,0.8,1c0.5,0.4,1.1,0.5,1.8,0.5c0.1,0,0.1,0,0.1,0H51C55.1,36,55.3,30,50.8,30z"/>
<path id="Path_2939" class="st1" d="M37,22.9l10.4-10.4c1.2-1.2,1.2-2.7,0.5-4c-0.3-0.4-0.5-0.7-0.8-1c-0.7-0.3-1.4-0.5-2.1-0.4
	c-0.1,0-0.1,0-0.1,0H30c-4,0-4.2,6.2,0.3,6.2h7.7l-5.6,5.6C29.6,21.5,33.7,26.2,37,22.9z"/>
<path id="Path_2940" class="st1" d="M81.4,9.2L79,14.9l3.7,9l4.8-11.9C89.3,7.3,82.9,5.2,81.4,9.2z"/>
<path id="Path_2941" class="st1" d="M73,9.2c-1.6-4.1-8.1-1.9-6.2,2.7l6.6,16.7l-0.3,0.7C73,29.5,73,29.7,73,29.9l-3.4,8.9
	c-1.9,4.8,4.7,6.6,6.3,2.5l4-10.4l0.8-1.9l-5.6-14.4L73,9.2z"/>
<g id="Group_677" class="st2">
	<path id="Path_2942" class="st3" d="M19.9,41.7h-0.7c-0.1,0-0.1,0.1-0.1,0.1l0,0c0,0.1,0,0.1,0.1,0.1l0,0h0.5c0.1,0,0.1,0,0.1,0.1
		v0.1c0,0.5-0.4,0.8-1,0.8c-0.7,0-1.1-0.5-1.1-1.5c0-0.8,0.4-1.5,1.1-1.5c0.4,0,0.7,0.1,0.8,0.5c0,0.1,0.1,0.1,0.1,0.1H20
		c0.1,0,0.1-0.1,0.1-0.1v-0.1c-0.1-0.4-0.5-0.8-1.2-0.8c-1,0-1.6,0.8-1.6,1.8c0,1.1,0.5,1.9,1.6,1.9c0.3,0,0.5-0.1,0.8-0.3l0.1-0.1
		V43v0.1c0,0.1,0.1,0.1,0.1,0.1c0.1,0,0.1,0,0.1-0.1l0,0v-1.2C20.3,41.8,20.1,41.7,19.9,41.7z"/>
	<path id="Path_2943" class="st3" d="M26.2,39.9c-1,0-1.6,0.7-1.6,1.8c0,1.1,0.7,1.9,1.6,1.9c1,0,1.6-0.7,1.6-1.9
		C27.8,40.6,27.1,39.9,26.2,39.9z M26.2,43.2c-0.7,0-1.1-0.5-1.1-1.5c0-0.8,0.4-1.5,1.1-1.5c0.7,0,1.1,0.5,1.1,1.4
		C27.2,42.6,26.8,43.2,26.2,43.2L26.2,43.2z"/>
	<path id="Path_2944" class="st3" d="M37.7,39.9L37.7,39.9c-0.1,0-0.3,0-0.3,0.1l-0.8,2.5c0,0.1-0.1,0.4-0.1,0.5
		c0-0.1-0.1-0.4-0.1-0.5l-1-2.5c0-0.1-0.1-0.1-0.1-0.1s0,0-0.1,0S34.9,40,34.9,40s0,0,0,0.1l1.2,3.2c0.1,0.1,0.3,0.3,0.4,0.1
		c0.1,0,0.1-0.1,0.1-0.1l1.2-3.2c0,0,0,0,0-0.1C37.8,40,37.8,39.9,37.7,39.9z"/>
	<path id="Path_2945" class="st3" d="M42.3,39.9c-0.1,0-0.3,0-0.3,0.1v3.3c0,0.1,0.1,0.1,0.3,0.1s0.3-0.1,0.3-0.1V40
		C42.6,39.9,42.5,39.9,42.3,39.9z"/>
	<path id="Path_2946" class="st3" d="M49.7,42.9c-0.3-0.8-0.5-1.1-0.8-1.2c0.4-0.1,0.7-0.4,0.7-1c0-0.5-0.4-1-1.1-1h-1.1
		c-0.3,0-0.4,0.1-0.4,0.5v2.9c0,0.1,0.1,0.1,0.3,0.1c0.1,0,0.1,0,0.3-0.1l0,0v-1.5h0.8c0.4,0,0.5,0.3,1,1.2l0.1,0.3
		c0,0.1,0.1,0.1,0.1,0.1h0.1c0.1,0,0.1-0.1,0.1-0.1s0,0,0-0.1L49.7,42.9z M48.5,41.5h-1.1v-1.1c0-0.1,0-0.1,0.1-0.1h1
		c0.4,0,0.5,0.3,0.5,0.5C49.2,41.2,48.9,41.5,48.5,41.5L48.5,41.5z"/>
	<path id="Path_2947" class="st3" d="M55.7,40c0-0.1-0.1-0.3-0.3-0.3c-0.1,0-0.3,0.1-0.3,0.3L54,43.2c0,0,0,0,0,0.1
		c0,0.1,0.1,0.1,0.1,0.1s0,0,0.1,0s0.1,0,0.1-0.1l0.4-1h1.6l0.4,1c0,0.1,0.1,0.1,0.1,0.1s0,0,0.1,0s0.1-0.1,0.1-0.1s0,0,0-0.1
		L55.7,40z M54.8,42.1l0.5-1.4c0-0.1,0.1-0.3,0.1-0.4c0,0.1,0.1,0.3,0.1,0.4l0.5,1.4H54.8L54.8,42.1z"/>
	<path id="Path_2948" class="st3" d="M63.6,43h-1.6c-0.1,0-0.1,0-0.1-0.1l0,0V40c0-0.1-0.1-0.1-0.3-0.1c-0.1,0-0.3,0-0.3,0.1v2.9
		c0,0.4,0.1,0.5,0.4,0.5h1.8c0.1,0,0.1-0.1,0.1-0.1l0,0C63.7,43.2,63.6,43,63.6,43L63.6,43z"/>
</g>
<path id="Path_2949" class="st1" d="M20.7,1.8c-1.9,0-3.4,1.5-3.4,3.4v8.4C12.6,9,1.4,12.2,1.4,23.7c0,9.2,9.5,16.3,16,9.9h0.1
	c0.5,1.8,2.3,2.9,4.1,2.3c1.5-0.4,2.5-1.8,2.5-3.3V5.2C24.1,3.3,22.6,1.8,20.7,1.8z M12.9,29.5c-2.6,0-5.2-3-4.8-5.9
	c0.4-2.9,2.1-5.3,4.8-5.3c2.6,0,4,1.8,4.4,3.8v3C16.8,27.4,15.3,29.5,12.9,29.5z"/>
<path id="Path_2950" class="st1" d="M60.3,1.8c-1.9,0-3.4,1.5-3.4,3.4v27.4c0,1.9,1.5,3.4,3.4,3.4c1.9,0,3.4-1.5,3.4-3.4V5.2
	C63.7,3.3,62.2,1.8,60.3,1.8z"/>
</svg>
