<?xml version="1.0" encoding="utf-8"?>
<!-- Generator: Adobe Illustrator 24.1.2, SVG Export Plug-In . SVG Version: 6.00 Build 0)  -->
<svg version="1.1" id="Layer_1" xmlns="http://www.w3.org/2000/svg" xmlns:xlink="http://www.w3.org/1999/xlink" x="0px" y="0px"
	 viewBox="0 0 90 46.7" style="enable-background:new 0 0 90 46.7;" xml:space="preserve">
<style type="text/css">
	.st0{opacity:0.8;fill:#F7EDF4;enable-background:new    ;}
	.st1{opacity:0.8;fill:#FFFFFF;}
	.st2{opacity:0.8;}
	.st3{fill:#FFFFFF;}
	.st4{opacity:0.6;fill:#E5C2D8;enable-background:new    ;}
	.st5{fill:url(#Path_2939_2_);}
	.st6{fill:url(#Path_2940_2_);}
	.st7{fill:url(#Path_2941_2_);}
	.st8{fill:url(#Path_2942_2_);}
	.st9{fill:url(#Path_2943_2_);}
	.st10{fill:url(#Path_2944_2_);}
	.st11{fill:url(#Path_2945_2_);}
	.st12{fill:url(#Path_2946_2_);}
	.st13{fill:url(#Path_2947_2_);}
	.st14{fill:url(#Path_2948_2_);}
	.st15{fill:url(#Path_2949_2_);}
	.st16{fill:url(#Path_2950_2_);}
</style>
<g>
	<g id="logo_1_">
		<path id="Path_2938_1_" class="st4" d="M50.8,30h-7.7l5.6-5.6c2.9-2.9-1.2-7.4-4.5-4.1L33.8,30.7c-1.2,1.2-1.2,2.7-0.5,4
			c0.3,0.4,0.5,0.7,0.8,1c0.5,0.4,1.1,0.5,1.8,0.5c0.1,0,0.1,0,0.1,0H51C55.1,36,55.3,30,50.8,30z"/>
		
			<linearGradient id="Path_2939_2_" gradientUnits="userSpaceOnUse" x1="-83.9606" y1="769.056" x2="-83.9606" y2="768.9397" gradientTransform="matrix(184.092 0 0 -145.5981 15494.1475 111980.1797)">
			<stop  offset="0" style="stop-color:#E26288"/>
			<stop  offset="1" style="stop-color:#7D3D95"/>
		</linearGradient>
		<path id="Path_2939_1_" class="st5" d="M37,22.9l10.4-10.4c1.2-1.2,1.2-2.7,0.5-4c-0.3-0.4-0.5-0.7-0.8-1
			c-0.7-0.3-1.4-0.5-2.1-0.4c-0.1,0-0.1,0-0.1,0H30c-4,0-4.2,6.2,0.3,6.2h7.7l-5.6,5.6C29.6,21.5,33.7,26.2,37,22.9z"/>
		
			<linearGradient id="Path_2940_2_" gradientUnits="userSpaceOnUse" x1="-90.0561" y1="769.0847" x2="-90.0561" y2="768.9684" gradientTransform="matrix(76.0456 0 0 -146.1543 6931.814 112412.1094)">
			<stop  offset="0" style="stop-color:#E26288"/>
			<stop  offset="1" style="stop-color:#7D3D95"/>
		</linearGradient>
		<path id="Path_2940_1_" class="st6" d="M81.4,9.2L79,14.9l3.7,9l4.8-11.9C89.3,7.3,82.9,5.2,81.4,9.2z"/>
		
			<linearGradient id="Path_2941_2_" gradientUnits="userSpaceOnUse" x1="-86.7393" y1="773.1111" x2="-86.7393" y2="772.9949" gradientTransform="matrix(122.2938 0 0 -313.5935 10681.2744 242449.7188)">
			<stop  offset="0" style="stop-color:#E26288"/>
			<stop  offset="1" style="stop-color:#7D3D95"/>
		</linearGradient>
		<path id="Path_2941_1_" class="st7" d="M73,9.2c-1.6-4.1-8.1-1.9-6.2,2.7l6.6,16.7l-0.3,0.7C73,29.5,73,29.7,73,29.9l-3.4,8.9
			c-1.9,4.8,4.7,6.6,6.3,2.5l4-10.4l0.8-1.9l-5.6-14.4L73,9.2z"/>
		<g id="Group_677_1_">
			
				<linearGradient id="Path_2942_2_" gradientUnits="userSpaceOnUse" x1="-84.997" y1="749.8626" x2="-84.9389" y2="749.7464" gradientTransform="matrix(25.4462 0 0 -31.8912 2181.1262 23954.1562)">
				<stop  offset="0" style="stop-color:#E26288"/>
				<stop  offset="1" style="stop-color:#7D3D95"/>
			</linearGradient>
			<path id="Path_2942_1_" class="st8" d="M19.9,41.7h-0.7c-0.1,0-0.1,0.1-0.1,0.1l0,0c0,0.1,0,0.1,0.1,0.1l0,0h0.5
				c0.1,0,0.1,0,0.1,0.1v0.1c0,0.5-0.4,0.8-1,0.8c-0.7,0-1.1-0.5-1.1-1.5c0-0.8,0.4-1.5,1.1-1.5c0.4,0,0.7,0.1,0.8,0.5
				c0,0.1,0.1,0.1,0.1,0.1H20c0.1,0,0.1-0.1,0.1-0.1v-0.1c-0.1-0.4-0.5-0.8-1.2-0.8c-1,0-1.6,0.8-1.6,1.8c0,1.1,0.5,1.9,1.6,1.9
				c0.3,0,0.5-0.1,0.8-0.3l0.1-0.1V43v0.1c0,0.1,0.1,0.1,0.1,0.1c0.1,0,0.1,0,0.1-0.1l0,0v-1.2C20.3,41.8,20.1,41.7,19.9,41.7z"/>
			
				<linearGradient id="Path_2943_2_" gradientUnits="userSpaceOnUse" x1="-86.8704" y1="749.8907" x2="-86.8123" y2="749.7745" gradientTransform="matrix(27.521 0 0 -31.926 2416.2659 23981.1875)">
				<stop  offset="0" style="stop-color:#E26288"/>
				<stop  offset="1" style="stop-color:#7D3D95"/>
			</linearGradient>
			<path id="Path_2943_1_" class="st9" d="M26.2,39.9c-1,0-1.6,0.7-1.6,1.8c0,1.1,0.7,1.9,1.6,1.9c1,0,1.6-0.7,1.6-1.9
				C27.8,40.6,27.1,39.9,26.2,39.9z M26.2,43.2c-0.7,0-1.1-0.5-1.1-1.5c0-0.8,0.4-1.5,1.1-1.5c0.7,0,1.1,0.5,1.1,1.4
				C27.2,42.6,26.8,43.2,26.2,43.2L26.2,43.2z"/>
			
				<linearGradient id="Path_2944_2_" gradientUnits="userSpaceOnUse" x1="-90.1067" y1="749.3074" x2="-90.0486" y2="749.1911" gradientTransform="matrix(25.859 0 0 -31.2219 2366.3743 23434.6738)">
				<stop  offset="0" style="stop-color:#E26288"/>
				<stop  offset="1" style="stop-color:#7D3D95"/>
			</linearGradient>
			<path id="Path_2944_1_" class="st10" d="M37.7,39.9L37.7,39.9c-0.1,0-0.3,0-0.3,0.1l-0.8,2.5c0,0.1-0.1,0.4-0.1,0.5
				c0-0.1-0.1-0.4-0.1-0.5l-1-2.5c0-0.1-0.1-0.1-0.1-0.1s0,0-0.1,0S34.9,40,34.9,40s0,0,0,0.1l1.2,3.2c0.1,0.1,0.3,0.3,0.4,0.1
				c0.1,0,0.1-0.1,0.1-0.1l1.2-3.2c0,0,0,0,0-0.1C37.8,40,37.8,39.9,37.7,39.9z"/>
			
				<linearGradient id="Path_2945_2_" gradientUnits="userSpaceOnUse" x1="-144.191" y1="749.2611" x2="-144.1329" y2="749.1449" gradientTransform="matrix(3.786 0 0 -31.182 588.1435 23403.7207)">
				<stop  offset="0" style="stop-color:#E26288"/>
				<stop  offset="1" style="stop-color:#7D3D95"/>
			</linearGradient>
			<path id="Path_2945_1_" class="st11" d="M42.3,39.9c-0.1,0-0.3,0-0.3,0.1v3.3c0,0.1,0.1,0.1,0.3,0.1s0.3-0.1,0.3-0.1V40
				C42.6,39.9,42.5,39.9,42.3,39.9z"/>
			
				<linearGradient id="Path_2946_2_" gradientUnits="userSpaceOnUse" x1="-94.7547" y1="749.0756" x2="-94.6965" y2="748.9593" gradientTransform="matrix(23.536 0 0 -30.9664 2277.8572 23236.5312)">
				<stop  offset="0" style="stop-color:#E26288"/>
				<stop  offset="1" style="stop-color:#7D3D95"/>
			</linearGradient>
			<path id="Path_2946_1_" class="st12" d="M49.7,42.9c-0.3-0.8-0.5-1.1-0.8-1.2c0.4-0.1,0.7-0.4,0.7-1c0-0.5-0.4-1-1.1-1h-1.1
				c-0.3,0-0.4,0.1-0.4,0.5v2.9c0,0.1,0.1,0.1,0.3,0.1c0.1,0,0.1,0,0.3-0.1l0,0v-1.5h0.8c0.4,0,0.5,0.3,1,1.2l0.1,0.3
				c0,0.1,0.1,0.1,0.1,0.1h0.1c0.1,0,0.1-0.1,0.1-0.1s0,0,0-0.1L49.7,42.9z M48.5,41.5h-1.1v-1.1c0-0.1,0-0.1,0.1-0.1h1
				c0.4,0,0.5,0.3,0.5,0.5C49.2,41.2,48.9,41.5,48.5,41.5L48.5,41.5z"/>
			
				<linearGradient id="Path_2947_2_" gradientUnits="userSpaceOnUse" x1="-95.1063" y1="749.297" x2="-95.0482" y2="749.1808" gradientTransform="matrix(27.2363 0 0 -31.231 2644.7302 23441.7402)">
				<stop  offset="0" style="stop-color:#E26288"/>
				<stop  offset="1" style="stop-color:#7D3D95"/>
			</linearGradient>
			<path id="Path_2947_1_" class="st13" d="M55.7,40c0-0.1-0.1-0.3-0.3-0.3c-0.1,0-0.3,0.1-0.3,0.3L54,43.2c0,0,0,0,0,0.1
				c0,0.1,0.1,0.1,0.1,0.1s0,0,0.1,0s0.1,0,0.1-0.1l0.4-1h1.6l0.4,1c0,0.1,0.1,0.1,0.1,0.1s0,0,0.1,0s0.1-0.1,0.1-0.1s0,0,0-0.1
				L55.7,40z M54.8,42.1l0.5-1.4c0-0.1,0.1-0.3,0.1-0.4c0,0.1,0.1,0.3,0.1,0.4l0.5,1.4H54.8L54.8,42.1z"/>
			
				<linearGradient id="Path_2948_2_" gradientUnits="userSpaceOnUse" x1="-101.4803" y1="749.0439" x2="-101.4222" y2="748.9278" gradientTransform="matrix(20.7822 0 0 -30.9469 2170.5464 23221.1309)">
				<stop  offset="0" style="stop-color:#E26288"/>
				<stop  offset="1" style="stop-color:#7D3D95"/>
			</linearGradient>
			<path id="Path_2948_1_" class="st14" d="M63.6,43h-1.6c-0.1,0-0.1,0-0.1-0.1l0,0V40c0-0.1-0.1-0.1-0.3-0.1c-0.1,0-0.3,0-0.3,0.1
				v2.9c0,0.4,0.1,0.5,0.4,0.5h1.8c0.1,0,0.1-0.1,0.1-0.1l0,0C63.7,43.2,63.6,43,63.6,43L63.6,43z"/>
		</g>
		
			<linearGradient id="Path_2949_2_" gradientUnits="userSpaceOnUse" x1="-82.9324" y1="772.7498" x2="-82.9324" y2="772.6335" gradientTransform="matrix(195.651 0 0 -294.7395 16238.5381 227761.6562)">
			<stop  offset="0" style="stop-color:#E26288"/>
			<stop  offset="1" style="stop-color:#7D3D95"/>
		</linearGradient>
		<path id="Path_2949_1_" class="st15" d="M20.7,1.8c-1.9,0-3.4,1.5-3.4,3.4v8.4C12.6,9,1.4,12.2,1.4,23.7c0,9.2,9.5,16.3,16,9.9
			h0.1c0.5,1.8,2.3,2.9,4.1,2.3c1.5-0.4,2.5-1.8,2.5-3.3V5.2C24.1,3.3,22.6,1.8,20.7,1.8z M12.9,29.5c-2.6,0-5.2-3-4.8-5.9
			c0.4-2.9,2.1-5.3,4.8-5.3c2.6,0,4,1.8,4.4,3.8v3C16.8,27.4,15.3,29.5,12.9,29.5z"/>
		
			<linearGradient id="Path_2950_2_" gradientUnits="userSpaceOnUse" x1="-89.2246" y1="772.7498" x2="-89.2246" y2="772.6335" gradientTransform="matrix(58.288 0 0 -294.7369 5260.9951 227759.6719)">
			<stop  offset="0" style="stop-color:#E26288"/>
			<stop  offset="1" style="stop-color:#7D3D95"/>
		</linearGradient>
		<path id="Path_2950_1_" class="st16" d="M60.3,1.8c-1.9,0-3.4,1.5-3.4,3.4v27.4c0,1.9,1.5,3.4,3.4,3.4c1.9,0,3.4-1.5,3.4-3.4V5.2
			C63.7,3.3,62.2,1.8,60.3,1.8z"/>
	</g>
</g>
</svg>
